<?xml version="1.0" encoding="UTF-8" standalone="no"?>
<!-- Generator: Adobe Illustrator 19.0.0, SVG Export Plug-In . SVG Version: 6.00 Build 0)  -->
<svg id="Capa_1" style="enable-background:new 0 0 496 496" xmlns="http://www.w3.org/2000/svg" xml:space="preserve" viewBox="0 0 496 496" version="1.1" y="0px" x="0px" xmlns:xlink="http://www.w3.org/1999/xlink">
		<path d="m472 112h-184v-72c0-22.056-17.944-40-40-40h-208c-22.056 0-40 17.944-40 40v416c0 22.056 17.944 40 40 40h208c22.056 0 40-17.944 40-40v-120h-16v80h-256v-336h256v32h-72c-13.232 0-24 10.768-24 24v116.69l-67.31 67.31h363.31c13.232 0 24-10.768 24-24v-160c0-13.23-10.77-24-24-24zm-200 320v24c0 13.232-10.768 24-24 24h-208c-13.232 0-24-10.768-24-24v-24h256zm-256-368v-24c0-13.232 10.768-24 24-24h208c13.232 0 24 10.768 24 24v24h-256zm464 232c0 4.416-3.584 8-8 8h-324.69l44.69-44.69v-123.31c0-4.416 3.584-8 8-8h272c4.416 0 8 3.584 8 8v160z"/>
		<path d="m416 208c-8.824 0-16-7.176-16-16s7.176-16 16-16 16 7.176 16 16h16c0-17.648-14.352-32-32-32s-32 14.352-32 32 14.352 32 32 32c8.824 0 16 7.176 16 16s-7.176 16-16 16-16-7.176-16-16h-16c0 17.648 14.352 32 32 32s32-14.352 32-32-14.35-32-32-32z"/>
		<path d="m256 208c-8.824 0-16-7.176-16-16s7.176-16 16-16 16 7.176 16 16h16c0-17.648-14.352-32-32-32s-32 14.352-32 32 14.352 32 32 32c8.824 0 16 7.176 16 16s-7.176 16-16 16-16-7.176-16-16h-16c0 17.648 14.352 32 32 32s32-14.352 32-32-14.35-32-32-32z"/>
		<polygon points="345.75 160 336 199.02 326.25 160 304 160 304 264 320 264 320 200.98 336 264.98 352 200.98 352 264 368 264 368 160"/>
		<rect y="448" x="112" height="16" width="64"/>
		<rect y="336" x="240" height="16" width="16"/>
		<rect y="336" x="208" height="16" width="16"/>
		<rect y="336" x="176" height="16" width="16"/>
		<rect y="336" x="144" height="16" width="16"/>
</svg>
